<svg width="40" height="40" viewBox="0 0 40 40" fill="none" xmlns="http://www.w3.org/2000/svg">
<path fill-rule="evenodd" clip-rule="evenodd" d="M25.7071 14.2929C26.0976 14.6834 26.0976 15.3166 25.7071 15.7071L4.45711 36.9571C4.06658 37.3476 3.43342 37.3476 3.04289 36.9571C2.65237 36.5666 2.65237 35.9334 3.04289 35.5429L24.2929 14.2929C24.6834 13.9024 25.3166 13.9024 25.7071 14.2929Z" fill="#961914"/>
<path fill-rule="evenodd" clip-rule="evenodd" d="M31.8965 8.10352C28.6721 7.10337 25.2363 6.97892 21.9429 7.74746C18.488 8.55367 15.3276 10.3104 12.819 12.819C10.3104 15.3276 8.55367 18.488 7.74746 21.9429C6.97892 25.2363 7.10337 28.6721 8.10352 31.8965C11.3279 32.8966 14.7637 33.0211 18.0572 32.2526C21.512 31.4463 24.6724 29.6896 27.181 27.181C29.6896 24.6724 31.4463 21.512 32.2526 18.0572C33.0211 14.7637 32.8966 11.3279 31.8965 8.10352ZM7.30985 32.6902L6.98875 33.6372C10.702 34.8962 14.6934 35.0912 18.5117 34.2002C22.3299 33.3092 25.8228 31.3677 28.5952 28.5952C31.3677 25.8228 33.3092 22.3299 34.2002 18.5117C35.0912 14.6934 34.8962 10.702 33.6372 6.98875C33.5373 6.69408 33.3059 6.46271 33.0113 6.36281C29.298 5.1038 25.3066 4.90878 21.4884 5.79979C17.6701 6.6908 14.1772 8.6323 11.4048 11.4048C8.6323 14.1772 6.6908 17.6701 5.79979 21.4884C4.90878 25.3066 5.1038 29.298 6.36281 33.0113L7.30985 32.6902Z" fill="#961914"/>
</svg>
