<svg width="18" height="10" viewBox="0 0 18 10" fill="none" xmlns="http://www.w3.org/2000/svg">
<path d="M17.1893 3.44879C16.8013 2.753 15.943 2.16264 14.6261 1.6777C13.5679 1.28764 12.4039 1.03463 11.6161 0.897581C11.1458 0.813244 10.652 0.739449 10.1464 0.676196C9.93474 0.655112 9.73486 0.79216 9.71134 0.981919C9.67607 1.17168 9.82892 1.35089 10.0406 1.37198C10.5344 1.43523 11.0047 1.50903 11.4633 1.58282C14.144 2.05722 15.9782 2.84788 16.4956 3.75451C16.6014 3.94427 16.6602 4.15511 16.6602 4.38704C16.6602 5.54668 15.6138 6.48493 14.3204 6.48493C13.0153 6.48493 11.7572 6.67469 10.4521 7.06475C9.88771 7.23342 9.34685 7.43372 8.81775 7.63403C8.46502 7.76053 8.11228 7.89758 7.74779 8.01354C6.8542 8.32981 6.16049 8.45632 5.44326 8.45632C3.18577 8.45632 1.3398 6.81174 1.3398 4.7771C1.3398 2.753 3.17401 1.09788 5.44326 1.09788C5.89006 1.09788 6.33686 1.10842 6.77189 1.11897C6.84244 1.11897 6.92475 1.11897 6.99529 1.12951C7.21869 1.14005 7.39506 0.992461 7.40682 0.79216C7.41857 0.602401 7.25396 0.433726 7.03057 0.423184C6.94826 0.423184 6.87771 0.412642 6.79541 0.412642C6.34861 0.412642 5.89006 0.4021 5.44326 0.4021C2.75073 0.4021 0.563782 2.36294 0.563782 4.7771C0.563782 7.19126 2.75073 9.1521 5.44326 9.1521C6.26631 9.1521 7.03057 9.00451 8.02998 8.66716C8.39447 8.5512 8.75896 8.41415 9.11169 8.2771C9.62904 8.08734 10.1581 7.88704 10.6872 7.72891C11.91 7.35993 13.0858 7.18071 14.3086 7.18071C16.0253 7.18071 17.4244 5.9262 17.4244 4.38704C17.4362 4.03915 17.3539 3.73342 17.1893 3.44879Z" fill="#961914"/>
</svg>
