<svg width="150" height="454" viewBox="0 0 150 454" fill="none" xmlns="http://www.w3.org/2000/svg">
<g clip-path="url(#clip0_174_70)">
<path d="M-80.4535 422.438C-53.0846 417.951 -27.2074 406.168 -5.25201 389.356C17.1294 372.231 35.7788 349.629 47.3672 323.859C53.3815 310.471 57.4919 295.775 56.434 280.997C55.3691 266.111 49.1248 252.012 41.2802 239.473C33.3013 226.681 23.18 214.752 10.9069 205.882C-0.271824 197.784 -14.0172 192.191 -28.0216 193.655C-49.7051 195.932 -70.6181 219.607 -60.1402 241.467C-57.23 247.519 -52.4469 252.449 -47.1337 256.461C-41.3782 260.799 -34.7737 264.332 -27.8166 266.285C-14.4507 270.049 -1.05393 266.485 10.113 258.661C33.4646 242.341 46.3153 213.173 49.4201 185.548C52.6613 156.778 45.1866 127.837 30.5261 103.038C16.5228 79.2824 -3.67582 59.2258 -27.664 45.5511C-50.8385 32.3462 -77.7106 25.1215 -104.437 27.0405C-110.901 27.5063 -117.37 28.5281 -123.665 30.0356C-124.602 30.2642 -124.229 31.739 -123.277 31.4842C-97.8332 25.3616 -71.0707 28.2905 -46.855 37.934C-22.4405 47.6574 -0.876549 63.955 15.6521 84.3064C33.0671 105.729 45.2559 131.9 48.03 159.526C50.8919 187.727 43.8353 217.408 26.6549 240.194C18.7206 250.724 8.20066 260.216 -4.52581 264.376C-18.5396 268.948 -32.7565 264.657 -44.5289 256.496C-55.1019 249.168 -63.7361 237.572 -60.9878 224.082C-58.7577 213.127 -50.3742 203.941 -40.5876 198.993C-14.5992 185.804 13.2996 206.284 29.3851 225.645C38.9855 237.204 47.2097 250.662 51.7386 265.065C56.1636 279.162 55.7414 293.715 51.6523 307.829C47.746 321.384 41.1027 334.164 33.3288 345.87C25.8083 357.199 16.9572 367.62 7.02082 376.889C-12.5651 395.173 -36.3466 409.146 -62.1043 416.661C-68.2954 418.474 -74.5713 419.887 -80.947 420.928C-81.8012 421.135 -81.4126 422.583 -80.4535 422.438Z" fill="white"/>
</g>
<defs>
<clipPath id="clip0_174_70">
<rect x="-26.6565" y="453.707" width="296" height="353" rx="2" transform="rotate(-150 -26.6565 453.707)" fill="white"/>
</clipPath>
</defs>
</svg>
