<svg width="50" height="39" viewBox="0 0 50 39" fill="none" xmlns="http://www.w3.org/2000/svg">
<g clip-path="url(#clip0_6231_3237)">
<path d="M30.3461 24.16C27.754 18.6913 24.5765 13.5592 20.9252 8.76365C20.3677 8.06254 19.3922 9.04409 19.9497 9.7452C23.5452 14.4286 26.6391 19.5046 29.1755 24.8611C29.5378 25.6744 30.7363 24.9732 30.3461 24.16Z" fill="white"/>
<path d="M20.7027 37.0038C14.292 35.8259 7.96495 34.0872 1.83298 31.8436C0.9968 31.5632 0.634456 32.9093 1.47063 33.2178C7.6026 35.4614 13.9297 37.1721 20.3404 38.378C21.2323 38.5182 21.5946 37.1721 20.7027 37.0038Z" fill="white"/>
<path d="M46.3172 19.9815C47.5436 13.7276 48.77 7.50176 49.9964 1.24788C50.1636 0.378511 48.8258 -0.0141086 48.6585 0.883308C47.4321 7.13718 46.2057 13.363 44.9793 19.6169C44.7842 20.4863 46.1221 20.8789 46.3172 19.9815Z" fill="white"/>
</g>
<defs>
<clipPath id="clip0_6231_3237">
<rect x="0.99707" y="38.3784" width="38" height="49" rx="2" transform="rotate(-90 0.99707 38.3784)" fill="white"/>
</clipPath>
</defs>
</svg>
