<svg width="234" height="290" viewBox="0 0 234 290" fill="none" xmlns="http://www.w3.org/2000/svg">
<g clip-path="url(#clip0_174_43)">
<path d="M62.2241 -62.8184C40.7652 -45.2486 24.2467 -22.1051 13.6384 3.43162C2.81803 29.453 -2.03145 58.3522 0.81762 86.4637C2.30277 101.065 6.09143 115.848 14.3962 128.116C22.7615 140.475 35.2186 149.563 48.2819 156.5C61.5876 163.589 76.3179 168.86 91.3816 170.405C105.112 171.828 119.812 169.799 131.208 161.529C148.848 148.715 155.122 117.756 135.118 104.064C129.571 100.277 122.964 98.399 116.356 97.5811C109.203 96.7026 101.717 96.945 94.7156 98.7322C81.2583 102.155 71.4381 111.94 65.6794 124.299C53.6163 150.109 57.0716 181.795 68.195 207.271C79.7732 233.807 100.717 255.133 125.813 269.28C149.818 282.851 177.339 290.121 204.95 289.97C231.622 289.818 258.507 282.639 280.693 267.614C286.058 263.979 291.15 259.859 295.848 255.406C296.545 254.739 295.484 253.649 294.787 254.345C275.813 272.37 251.172 283.214 225.379 286.971C199.373 290.757 172.55 287.425 148.06 278.065C122.267 268.219 98.6255 251.649 82.4101 229.112C65.8309 206.12 57.1019 176.887 60.5874 148.564C62.1938 135.477 66.5583 121.997 75.4996 112.031C85.3501 101.065 99.8076 97.672 114.083 98.8534C126.904 99.9137 140.179 105.639 144.544 118.695C148.09 129.297 145.423 141.445 139.422 150.623C123.509 175.039 89.1084 171.253 65.4975 162.529C51.4037 157.318 37.5524 149.775 26.4289 139.567C15.5479 129.57 8.6374 116.756 5.12153 102.489C1.7269 88.7962 1.0904 74.4072 1.96937 60.3818C2.81803 46.8107 5.27308 33.3607 9.24359 20.3652C17.0634 -5.26237 30.6722 -29.2541 49.2215 -48.6414C53.6769 -53.3065 58.4052 -57.6686 63.4062 -61.7581C64.0427 -62.364 62.9819 -63.4242 62.2241 -62.8184Z" fill="white"/>
</g>
<defs>
<clipPath id="clip0_174_43">
<rect width="296" height="290" rx="2" fill="white"/>
</clipPath>
</defs>
</svg>
